<svg width="20" height="20" viewBox="0 0 20 20" fill="none" xmlns="http://www.w3.org/2000/svg">
<path d="M6.76538 8.99951C7.31767 8.99951 7.76538 9.44723 7.76538 9.99951C7.76538 10.5518 7.31767 10.9995 6.76538 10.9995V9.99951V8.99951ZM6.05817 10.7066C5.66765 10.3161 5.66765 9.68293 6.05817 9.2924L12.4221 2.92844C12.8127 2.53792 13.4458 2.53792 13.8363 2.92844C14.2269 3.31897 14.2269 3.95213 13.8363 4.34266L8.17949 9.99951L13.8363 15.6564C14.2269 16.0469 14.2269 16.6801 13.8363 17.0706C13.4458 17.4611 12.8127 17.4611 12.4221 17.0706L6.05817 10.7066ZM6.76538 9.99951V10.9995H6.76528V9.99951V8.99951H6.76538V9.99951Z" fill="#FFFEFE"/>
</svg>
